HIERARCHY
ROOT Hips
{
	OFFSET 0.000000 100.481300 0.000000
	CHANNELS 6 Xposition Yposition Zposition Xrotation Yrotation Zrotation
	JOINT Spine
	{
		OFFSET -0.279200 12.230698 -2.892100
		CHANNELS 3 Xrotation Yrotation Zrotation
		JOINT Spine1
		{
			OFFSET -0.325700 14.269203 -3.374200
			CHANNELS 3 Xrotation Yrotation Zrotation
			JOINT Spine2
			{
				OFFSET -0.372300 16.307602 -0.352600
				CHANNELS 3 Xrotation Yrotation Zrotation
				JOINT Neck
				{
					OFFSET -0.418800 17.814194 8.416900
					CHANNELS 3 Xrotation Yrotation Zrotation
					JOINT Head
					{
						OFFSET 0.000000 7.031097 3.806800
						CHANNELS 3 Xrotation Yrotation Zrotation
						JOINT HeadTop_End
						{
							OFFSET 0.000000 24.646606 12.978600
							CHANNELS 3 Xrotation Yrotation Zrotation
							End Site
							{
								OFFSET 0.000000 27.854965 0.000000
							}
						}
					}
				}
				JOINT LeftShoulder
				{
					OFFSET 16.952999 14.495407 -7.737500
					CHANNELS 3 Xrotation Yrotation Zrotation
					JOINT LeftArm
					{
						OFFSET 9.308998 -2.777710 0.208600
						CHANNELS 3 Xrotation Yrotation Zrotation
						JOINT LeftForeArm
						{
							OFFSET 29.972298 0.000000 0.000000
							CHANNELS 3 Xrotation Yrotation Zrotation
							JOINT LeftHand
							{
								OFFSET 26.026505 0.000000 0.000000
								CHANNELS 3 Xrotation Yrotation Zrotation
								JOINT LeftHandThumb1
								{
									OFFSET 12.240501 -7.147949 9.207150
									CHANNELS 3 Xrotation Yrotation Zrotation
									JOINT LeftHandThumb2
									{
										OFFSET 4.138618 -2.389435 2.389433
										CHANNELS 3 Xrotation Yrotation Zrotation
										JOINT LeftHandThumb3
										{
											OFFSET 2.726913 -1.574387 1.574386
											CHANNELS 3 Xrotation Yrotation Zrotation
											JOINT LeftHandThumb4
											{
												OFFSET 3.941010 -2.275345 2.275342
												CHANNELS 3 Xrotation Yrotation Zrotation
												End Site
												{
													OFFSET -0.005798 5.087799 0.009903
												}
											}
										}
									}
								}
								JOINT LeftHandIndex1
								{
									OFFSET 24.424698 -1.985611 5.953459
									CHANNELS 3 Xrotation Yrotation Zrotation
									JOINT LeftHandIndex2
									{
										OFFSET 6.426697 0.000000 0.000000
										CHANNELS 3 Xrotation Yrotation Zrotation
										JOINT LeftHandIndex3
										{
											OFFSET 5.337898 0.000000 0.000000
											CHANNELS 3 Xrotation Yrotation Zrotation
											JOINT LeftHandIndex4
											{
												OFFSET 4.409401 0.000000 0.000000
												CHANNELS 3 Xrotation Yrotation Zrotation
												End Site
												{
													OFFSET 0.000000 4.409363 0.014373
												}
											}
										}
									}
								}
								JOINT LeftHandMiddle1
								{
									OFFSET 23.810104 0.000000 0.000000
									CHANNELS 3 Xrotation Yrotation Zrotation
									JOINT LeftHandMiddle2
									{
										OFFSET 7.176498 0.000000 0.000000
										CHANNELS 3 Xrotation Yrotation Zrotation
										JOINT LeftHandMiddle3
										{
											OFFSET 6.774902 0.000000 0.000000
											CHANNELS 3 Xrotation Yrotation Zrotation
											JOINT LeftHandMiddle4
											{
												OFFSET 5.403328 0.000000 0.000000
												CHANNELS 3 Xrotation Yrotation Zrotation
												End Site
												{
													OFFSET -0.027702 5.403244 0.017414
												}
											}
										}
									}
								}
								JOINT LeftHandRing1
								{
									OFFSET 22.908401 -0.839279 -6.020567
									CHANNELS 3 Xrotation Yrotation Zrotation
									JOINT LeftHandRing2
									{
										OFFSET 6.337502 0.000000 0.000000
										CHANNELS 3 Xrotation Yrotation Zrotation
										JOINT LeftHandRing3
										{
											OFFSET 5.779297 0.000000 0.000000
											CHANNELS 3 Xrotation Yrotation Zrotation
											JOINT LeftHandRing4
											{
												OFFSET 4.965698 0.000000 0.000000
												CHANNELS 3 Xrotation Yrotation Zrotation
												End Site
												{
													OFFSET 0.000000 4.965668 0.016186
												}
											}
										}
									}
								}
								JOINT LeftHandPinky1
								{
									OFFSET 20.037003 -1.530319 -10.950146
									CHANNELS 3 Xrotation Yrotation Zrotation
									JOINT LeftHandPinky2
									{
										OFFSET 5.254700 0.000000 0.000000
										CHANNELS 3 Xrotation Yrotation Zrotation
										JOINT LeftHandPinky3
										{
											OFFSET 4.810204 0.000000 0.000000
											CHANNELS 3 Xrotation Yrotation Zrotation
											JOINT LeftHandPinky4
											{
												OFFSET 3.647202 0.000000 0.000000
												CHANNELS 3 Xrotation Yrotation Zrotation
												End Site
												{
													OFFSET 0.000000 3.647186 0.011889
												}
											}
										}
									}
								}
							}
						}
					}
				}
				JOINT RightShoulder
				{
					OFFSET -15.141001 14.495407 -7.737500
					CHANNELS 3 Xrotation Yrotation Zrotation
					JOINT RightArm
					{
						OFFSET -9.308998 -2.777710 0.208500
						CHANNELS 3 Xrotation Yrotation Zrotation
						JOINT RightForeArm
						{
							OFFSET -29.972300 0.000000 0.000000
							CHANNELS 3 Xrotation Yrotation Zrotation
							JOINT RightHand
							{
								OFFSET -26.026505 0.000000 0.000000
								CHANNELS 3 Xrotation Yrotation Zrotation
								JOINT RightHandThumb1
								{
									OFFSET -12.240601 -7.148026 9.207092
									CHANNELS 3 Xrotation Yrotation Zrotation
									JOINT RightHandThumb2
									{
										OFFSET -4.138618 -2.389435 2.389433
										CHANNELS 3 Xrotation Yrotation Zrotation
										JOINT RightHandThumb3
										{
											OFFSET -2.726974 -1.574417 1.574421
											CHANNELS 3 Xrotation Yrotation Zrotation
											JOINT RightHandThumb4
											{
												OFFSET -3.941010 -2.275345 2.275343
												CHANNELS 3 Xrotation Yrotation Zrotation
												End Site
												{
													OFFSET 0.005814 5.087799 0.009927
												}
											}
										}
									}
								}
								JOINT RightHandIndex1
								{
									OFFSET -24.424698 -1.985657 5.953444
									CHANNELS 3 Xrotation Yrotation Zrotation
									JOINT RightHandIndex2
									{
										OFFSET -6.426697 0.000000 0.000000
										CHANNELS 3 Xrotation Yrotation Zrotation
										JOINT RightHandIndex3
										{
											OFFSET -5.337898 0.000000 0.000000
											CHANNELS 3 Xrotation Yrotation Zrotation
											JOINT RightHandIndex4
											{
												OFFSET -4.409401 0.000000 0.000000
												CHANNELS 3 Xrotation Yrotation Zrotation
												End Site
												{
													OFFSET 0.000000 4.409363 0.014408
												}
											}
										}
									}
								}
								JOINT RightHandMiddle1
								{
									OFFSET -23.810097 0.000000 0.000000
									CHANNELS 3 Xrotation Yrotation Zrotation
									JOINT RightHandMiddle2
									{
										OFFSET -7.176498 0.000000 0.000000
										CHANNELS 3 Xrotation Yrotation Zrotation
										JOINT RightHandMiddle3
										{
											OFFSET -6.774902 0.000000 0.000000
											CHANNELS 3 Xrotation Yrotation Zrotation
											JOINT RightHandMiddle4
											{
												OFFSET -5.403328 0.000000 0.000000
												CHANNELS 3 Xrotation Yrotation Zrotation
												End Site
												{
													OFFSET 0.027702 5.403244 0.017457
												}
											}
										}
									}
								}
								JOINT RightHandRing1
								{
									OFFSET -22.908302 -0.839325 -6.020576
									CHANNELS 3 Xrotation Yrotation Zrotation
									JOINT RightHandRing2
									{
										OFFSET -6.337502 0.000000 0.000000
										CHANNELS 3 Xrotation Yrotation Zrotation
										JOINT RightHandRing3
										{
											OFFSET -5.779297 0.000000 0.000000
											CHANNELS 3 Xrotation Yrotation Zrotation
											JOINT RightHandRing4
											{
												OFFSET -4.965698 0.000000 0.000000
												CHANNELS 3 Xrotation Yrotation Zrotation
												End Site
												{
													OFFSET 0.000000 4.965668 0.016226
												}
											}
										}
									}
								}
								JOINT RightHandPinky1
								{
									OFFSET -20.037003 -1.530334 -10.950259
									CHANNELS 3 Xrotation Yrotation Zrotation
									JOINT RightHandPinky2
									{
										OFFSET -5.254700 0.000000 0.000000
										CHANNELS 3 Xrotation Yrotation Zrotation
										JOINT RightHandPinky3
										{
											OFFSET -4.810204 0.000000 0.000000
											CHANNELS 3 Xrotation Yrotation Zrotation
											JOINT RightHandPinky4
											{
												OFFSET -3.647202 0.000000 0.000000
												CHANNELS 3 Xrotation Yrotation Zrotation
												End Site
												{
													OFFSET 0.000000 3.647186 0.011917
												}
											}
										}
									}
								}
							}
						}
					}
				}
			}
		}
	}
	JOINT LeftUpLeg
	{
		OFFSET 15.427100 -6.655098 0.678600
		CHANNELS 3 Xrotation Yrotation Zrotation
		JOINT LeftLeg
		{
			OFFSET 4.081073 -39.591068 13.024000
			CHANNELS 3 Xrotation Yrotation Zrotation
			JOINT LeftFoot
			{
				OFFSET -4.081074 -37.707932 -15.979700
				CHANNELS 3 Xrotation Yrotation Zrotation
				JOINT LeftToeBase
				{
					OFFSET 5.346399 -15.068900 20.645000
					CHANNELS 3 Xrotation Yrotation Zrotation
					JOINT LeftToe_End
					{
						OFFSET 2.754700 0.931300 11.300900
						CHANNELS 3 Xrotation Yrotation Zrotation
						End Site
						{
							OFFSET 0.000000 11.669021 0.000000
						}
					}
				}
			}
		}
	}
	JOINT RightUpLeg
	{
		OFFSET -15.569500 -6.655098 0.678600
		CHANNELS 3 Xrotation Yrotation Zrotation
		JOINT RightLeg
		{
			OFFSET -4.081825 -39.591045 13.023800
			CHANNELS 3 Xrotation Yrotation Zrotation
			JOINT RightFoot
			{
				OFFSET 4.081824 -37.707954 -15.979600
				CHANNELS 3 Xrotation Yrotation Zrotation
				JOINT RightToeBase
				{
					OFFSET -5.346400 -15.068900 20.645000
					CHANNELS 3 Xrotation Yrotation Zrotation
					JOINT RightToe_End
					{
						OFFSET -2.754700 0.931300 11.300900
						CHANNELS 3 Xrotation Yrotation Zrotation
						End Site
						{
							OFFSET 0.000000 11.669021 0.000000
						}
					}
				}
			}
		}
	}
}
MOTION
Frames: 4
Frame Time: 0.033333
-1.961315 53.515808 147.236969 -17.268760 -23.075511 -9.765900 54.138385 2.806208 9.325454 7.426682 0.073692 0.227484 8.564584 -0.037395 0.219020 -9.953094 3.803230 -3.631948 -19.141199 7.144496 8.481064 -0.000000 -0.000000 -0.000002 -11.081493 -22.027712 10.918524 -78.741706 -8.898921 -51.203722 0.000104 -75.259963 0.000074 -124.525004 -9.697359 34.008567 7.026160 6.478039 -2.789708 18.683472 0.463200 9.261596 -4.408197 -9.607331 1.015730 -0.000001 -0.000003 0.000002 -1.346465 2.617513 -38.461663 2.934153 5.074345 -60.054431 0.498964 2.367756 -23.796704 -0.000001 0.000001 -0.000002 3.983364 8.201952 -53.292616 3.443168 5.334212 -65.661580 0.292452 1.829540 -18.161832 0.000000 0.000003 -0.000001 -0.323004 5.608789 -61.178817 4.272170 5.634720 -74.318728 0.617267 2.619416 -26.515353 0.000002 0.000000 0.000001 -3.137860 5.207813 -69.360284 3.811570 5.485276 -69.567806 0.186402 1.467522 -14.477139 0.000001 -0.000001 -0.000002 -7.612187 15.244352 12.427823 -58.980418 43.448568 47.353637 0.000015 113.622198 -0.000018 -37.922160 -41.954734 -25.226660 0.482064 -7.799600 16.933784 0.145961 -15.936546 -25.501319 -9.247765 -33.116418 -46.422252 -0.000000 0.000001 -0.000001 -1.332952 5.438046 10.032887 1.926769 -3.774259 54.076923 1.142758 -3.057730 40.975883 0.000000 0.000000 -0.000002 2.054195 -6.137391 61.470698 6.258818 -4.373676 110.135496 0.248604 -1.502703 18.785740 0.000000 -0.000000 -0.000001 -3.676792 -3.771525 66.894934 5.170612 -4.628854 96.336383 1.260878 -3.188454 43.143942 0.000000 0.000001 -0.000001 -4.062722 -4.718015 74.684902 3.343791 -4.468557 73.602733 2.082894 -3.882314 56.414405 -0.000000 -0.000000 0.000002 -29.611500 10.066728 4.080110 110.424502 7.596024 -2.242150 -17.882060 -1.744074 2.094802 -51.212232 0.465758 -0.702904 -0.000000 0.000000 -0.000000 -57.301476 -15.078824 19.523413 86.189085 -12.044052 -10.361441 -9.003823 -1.669238 -5.204985 -19.352755 0.000009 0.000004 0.000001 -0.000003 -0.000000 
-1.893370 53.342087 152.432556 -19.906458 -24.316170 -10.235496 55.364349 2.708160 8.518241 7.838968 0.100155 -0.030146 9.266439 -0.044211 -0.040127 -10.066513 4.010108 -4.096198 -18.718890 7.018015 8.661024 -0.000001 -0.000002 0.000002 -12.014222 -21.626682 10.464609 -78.550003 -8.433600 -51.565883 0.000233 -74.177931 0.000217 -124.431184 -8.662961 33.672672 7.144610 6.305725 -3.088840 18.641685 0.562645 9.348150 -4.401515 -9.607081 0.990822 -0.000000 -0.000002 0.000001 -1.407741 2.550764 -38.551708 2.933751 5.074066 -60.049760 0.498203 2.366029 -23.778233 -0.000000 0.000001 -0.000002 4.172798 8.339583 -53.341182 3.446097 5.335519 -65.693039 0.293001 1.831215 -18.179040 0.000001 -0.000002 0.000003 -0.335987 5.602141 -61.184958 4.283569 5.637896 -74.434746 0.619101 2.623086 -26.555376 0.000001 -0.000000 -0.000000 -2.961061 5.253050 -69.202589 3.838829 5.495309 -69.852768 0.186984 1.469782 -14.500013 -0.000001 -0.000004 -0.000000 -8.699712 14.149610 12.024361 -58.807102 44.584060 49.121074 0.000163 112.010164 -0.000180 -37.039026 -41.049031 -24.822446 0.093183 -7.975554 17.246651 -0.944329 -15.675438 -25.789341 -9.488677 -32.143314 -47.053006 0.000001 0.000003 -0.000002 -1.345454 5.634903 9.907314 2.000101 -3.826176 55.182994 1.174132 -3.093456 41.560892 0.000000 0.000000 0.000001 1.971256 -6.098635 61.981603 6.256818 -4.374388 110.109486 0.248599 -1.502696 18.785529 -0.000000 0.000000 0.000000 -3.684399 -3.838448 67.410764 5.156440 -4.630391 96.160963 1.239964 -3.166030 42.766584 0.000000 -0.000000 -0.000001 -4.053725 -4.795372 75.211960 3.307274 -4.457627 73.132960 2.070970 -3.874389 56.238507 0.000000 -0.000000 0.000001 -39.690359 7.377186 9.718184 109.920598 5.463508 -2.544303 -21.384310 -1.983825 3.297234 -26.720861 0.527440 -2.076884 0.000000 -0.000000 0.000000 -51.778168 -13.677726 18.715290 91.133582 -9.792731 -9.806894 -15.364058 -2.755159 -5.376754 -18.725351 -0.000007 -0.000004 -0.000001 -0.000002 -0.000001 
-1.980696 53.183960 157.430145 -22.222355 -25.302849 -10.284538 56.692298 2.304455 7.795434 8.256146 0.097337 -0.316862 9.993999 -0.081511 -0.327509 -10.173002 4.094266 -4.142897 -18.915256 6.989619 8.727233 -0.000002 0.000001 0.000002 -12.952660 -21.209580 10.015319 -78.464660 -8.009673 -51.859963 -0.000032 -73.757621 -0.000052 -124.281589 -7.893839 33.583682 7.264062 6.130406 -3.390298 18.599360 0.662984 9.435805 -4.394743 -9.606829 0.965682 -0.000002 -0.000004 0.000003 -1.469911 2.483464 -38.642803 2.933326 5.073851 -60.044978 0.497422 2.364277 -23.759597 0.000001 0.000001 -0.000002 4.364551 8.478378 -53.390718 3.449064 5.336852 -65.724909 0.293542 1.832892 -18.196389 -0.000000 -0.000002 0.000000 -0.349101 5.595431 -61.191159 4.295073 5.641067 -74.551959 0.620945 2.626786 -26.595858 -0.000001 -0.000001 -0.000000 -2.782596 5.299813 -69.043473 3.866462 5.505311 -70.140790 0.187587 1.472064 -14.523105 0.000000 0.000002 -0.000001 -9.848588 12.976888 11.248442 -58.718317 45.510216 50.828789 0.000119 110.964442 -0.000138 -36.393249 -40.149710 -24.880868 -0.297505 -8.155906 17.563299 -2.041700 -15.398865 -26.069213 -9.707047 -31.155624 -47.685294 -0.000003 0.000003 0.000002 -1.357182 5.833903 9.780327 2.075210 -3.877194 56.301113 1.206195 -3.129235 42.152226 -0.000000 0.000000 0.000000 1.886350 -6.061219 62.497884 6.254808 -4.375121 110.083122 0.248580 -1.502684 18.785281 -0.000002 -0.000000 0.000000 -3.691068 -3.906600 67.932215 5.142124 -4.631902 95.983699 1.218969 -3.143203 42.385166 0.000000 0.000000 -0.000002 -4.043349 -4.873748 75.744803 3.270378 -4.446345 72.658091 2.058964 -3.866366 56.060728 -0.000000 0.000000 0.000000 -49.395914 5.124315 14.209088 107.509472 4.158193 -2.509084 -23.134387 -3.000035 5.519747 -11.237410 0.000008 0.000003 -0.000000 -0.000001 0.000000 -45.765983 -11.693651 17.064292 95.356592 -7.378963 -9.148423 -21.997753 -3.955617 -5.649437 -18.583498 -0.000011 -0.000004 -0.000000 0.000000 -0.000000 
-2.134625 52.866623 162.228012 -23.778161 -26.235812 -10.220684 57.500972 1.930808 7.148036 8.595722 0.103295 -0.596181 10.661469 -0.109605 -0.607290 -10.274019 4.085519 -3.849717 -19.291168 7.039499 8.784206 -0.000002 0.000000 -0.000000 -13.896818 -20.776860 9.571328 -77.887249 -7.924195 -51.867746 -0.000048 -73.994165 -0.000046 -124.409724 -7.655153 33.621036 7.384374 5.952278 -3.693686 18.556572 0.764138 9.524461 -4.387911 -9.606590 0.940274 0.000001 0.000000 0.000000 -1.532885 2.415733 -38.734812 2.932906 5.073603 -60.040204 0.496645 2.362509 -23.740754 0.000002 -0.000000 -0.000002 4.558419 8.618160 -53.441200 3.452041 5.338192 -65.757066 0.294105 1.834614 -18.213920 -0.000001 -0.000001 -0.000001 -0.362346 5.588643 -61.197402 4.306693 5.644250 -74.670346 0.622821 2.630521 -26.636688 0.000001 -0.000002 -0.000001 -2.602666 5.348099 -68.883093 3.894379 5.515262 -70.431558 0.188180 1.474388 -14.546423 -0.000001 -0.000003 -0.000001 -11.049998 11.434112 10.293495 -58.528943 46.246244 52.855142 0.000136 110.412562 -0.000129 -35.795369 -39.181124 -25.139351 -0.689351 -8.340458 17.883259 -3.144728 -15.107188 -26.339870 -9.902151 -30.155391 -48.318664 -0.000005 0.000003 0.000003 -1.368066 6.034895 9.652086 2.152027 -3.927235 57.429911 1.239007 -3.164995 42.749174 -0.000000 -0.000000 0.000000 1.799573 -6.025219 63.018884 6.252792 -4.375889 110.056539 0.248593 -1.502670 18.785045 -0.000001 0.000000 0.000000 -3.696753 -3.975835 68.458638 5.127667 -4.633409 95.804693 1.197935 -3.120056 42.000124 -0.000000 0.000000 0.000001 -4.031534 -4.953092 76.282790 3.233280 -4.434621 72.178693 2.046875 -3.858234 55.881268 -0.000000 -0.000000 0.000002 -59.049649 2.526755 17.388202 103.671569 2.892458 -2.027496 -21.539727 -5.667939 5.918927 -12.527136 -0.000006 0.000002 -0.000000 0.000000 -0.000000 -39.888305 -9.512100 15.212877 98.916746 -4.687772 -8.422823 -28.550971 -5.870338 -5.939570 -18.693183 -0.000002 -0.000003 0.000000 0.000001 -0.000000 
